Coordinates
version=1
nRows=24
nColumns=24
inDegrees=yes

Units are S.I. units (second, meters, Newtons, ...)
Angles are in degrees.

endheader
time	pelvis_tilt	pelvis_list	pelvis_rotation	pelvis_tx	pelvis_ty	pelvis_tz	hip_flexion_r	hip_adduction_r	hip_rotation_r	knee_angle_r	ankle_angle_r	subtalar_angle_r	mtp_angle_r	hip_flexion_l	hip_adduction_l	hip_rotation_l	knee_angle_l	ankle_angle_l	subtalar_angle_l	mtp_angle_l	lumbar_extension	lumbar_bending	lumbar_rotation
      7.68000000	     -1.22504617	      0.25202814	     -1.23777161	     -1.16112890	      0.67651181	      0.17898107	     -2.36188520	      6.75682458	      2.87106649	     -6.15693492	     17.02300326	     -9.68205566	      0.00000000	     30.36514098	     -0.40642084	     -0.67414750	    -38.30310455	     -3.42315665	    -34.98674517	      0.00000000	    -12.18869643	     -6.71985195	      1.04197265
      7.69000000	     -0.98185044	     -0.17596342	     -2.01938462	     -1.15196018	      0.67559573	      0.17982022	     -3.59187895	      7.16029740	      3.35753583	     -6.00189287	     17.62176301	     -9.27481510	      0.00000000	     29.60045484	     -1.10761455	     -0.68281913	    -33.58104980	     -2.93574502	    -33.09211481	      0.00000000	    -12.31488836	     -6.24267908	      1.60471574
      7.70000000	     -0.81925452	     -0.72810396	     -2.77417269	     -1.14265855	      0.67446209	      0.18058586	     -4.77070504	      7.65742988	      3.74364270	     -5.84238718	     18.25187030	     -8.74148881	      0.00000000	     28.81234438	     -1.94600498	     -0.71994233	    -28.76783446	     -1.99627388	    -29.98376194	      0.00000000	    -12.35248756	     -5.59430628	      2.11569229
      7.71000000	     -0.63396141	     -1.25809264	     -3.56677637	     -1.13311493	      0.67326180	      0.18131842	     -6.05738385	      8.08003038	      4.16963265	     -5.59718086	     18.82501220	     -8.18930296	      0.00000000	     27.80809083	     -2.74760252	     -0.73301052	    -23.74842028	     -1.13912208	    -26.66223677	      0.00000000	    -12.38122653	     -4.98942976	      2.71549813
      7.72000000	     -0.47484189	     -1.78931284	     -4.36732081	     -1.12336489	      0.67195272	      0.18200993	     -7.36618244	      8.45792638	      4.55963051	     -5.32377230	     19.37727685	     -7.58451247	      0.00000000	     26.71408505	     -3.54480941	     -0.75868378	    -18.68202364	     -0.28216478	    -22.91948603	      0.00000000	    -12.36230861	     -4.38403359	      3.33751921
      7.73000000	     -0.33877233	     -2.29585309	     -5.16805890	     -1.11342004	      0.67055777	      0.18265300	     -8.68255629	      8.76434857	      4.89313642	     -5.04543065	     19.91152207	     -6.93428884	      0.00000000	     25.55667178	     -4.30039304	     -0.75050413	    -13.67036423	      0.35676675	    -19.04675014	      0.00000000	    -12.30428018	     -3.80243456	      3.95722494
      7.74000000	     -0.14855556	     -2.69282407	     -6.00430737	     -1.10324808	      0.66917956	      0.18326687	    -10.09092497	      8.89298165	      5.25492490	     -4.74290796	     20.33581615	     -6.31789633	      0.00000000	     24.21087352	     -4.91341637	     -0.47609192	     -8.72659856	      0.33060747	    -15.93818931	      0.00000000	    -12.27814998	     -3.36519161	      4.60654905
      7.75000000	     -0.08442592	     -3.09730549	     -6.82753631	     -1.09299435	      0.66766647	      0.18386792	    -11.33685425	      9.00802319	      5.59233786	     -4.53343728	     20.82586589	     -5.61428612	      0.00000000	     23.08852882	     -5.55801244	     -0.24160277	     -4.33756505	      0.28630175	    -12.77360806	      0.00000000	    -12.11338366	     -2.90380017	      5.21018510
      7.76000000	     -0.12374602	     -3.41088746	     -7.59269649	     -1.08270620	      0.66611053	      0.18437029	    -12.38596568	      9.01437403	      5.80654853	     -4.47337887	     21.29981767	     -4.86313346	      0.00000000	     22.23707169	     -6.09910469	     -0.10878816	     -0.66186618	     -0.00473608	     -9.94183168	      0.00000000	    -11.85053693	     -2.50874314	      5.63990776
      7.77000000	     -0.18721045	     -3.55207149	     -8.41262278	     -1.07234433	      0.66461929	      0.18488341	    -13.36436708	      8.80221288	      6.25229240	     -4.47557520	     21.63861177	     -4.31032766	      0.00000000	     21.50763668	     -6.47336575	      0.26768138	      2.27998894	     -0.41577926	     -8.39763826	      0.00000000	    -11.53549549	     -2.33274452	      6.16081650
      7.78000000	     -0.18500149	     -3.50486973	     -9.12580382	     -1.06195836	      0.66330048	      0.18524740	    -14.28591352	      8.37941630	      6.57416832	     -4.63079140	     21.93276186	     -3.76721469	      0.00000000	     20.99573237	     -6.58391472	      0.43219061	      4.15919914	     -0.62489109	     -7.29299195	      0.00000000	    -11.30443284	     -2.37004677	      6.45204884
      7.79000000	     -0.24583757	     -3.30526136	     -9.76526954	     -1.05154003	      0.66204441	      0.18547583	    -15.02639090	      7.81194252	      6.97401125	     -4.93385904	     22.16479150	     -3.41592071	      0.00000000	     20.84764746	     -6.47742631	      0.51908557	      4.90308535	     -0.54242247	     -6.85793684	      0.00000000	    -10.98680869	     -2.55603046	      6.61202725
      7.80000000	     -0.19557979	     -2.91958000	    -10.29233596	     -1.04104187	      0.66099582	      0.18553314	    -15.73816758	      7.04738117	      7.23127729	     -5.41809962	     22.29996800	     -3.15700886	      0.00000000	     20.89984363	     -6.07512879	      0.45535601	      4.48155789	     -0.07620512	     -6.79344566	      0.00000000	    -10.78369780	     -2.97502214	      6.64964746
      7.81000000	     -0.06936223	     -2.43711105	    -10.73946721	     -1.03035172	      0.66012839	      0.18548629	    -16.44122879	      6.18120299	      7.35957080	     -6.02930500	     22.35864021	     -2.75539609	      0.00000000	     21.18505608	     -5.48362609	     -0.18628802	      2.91477682	      1.09204335	     -6.19037550	      0.00000000	    -10.61791167	     -3.52137700	      6.55253075
      7.82000000	     -0.01224639	     -1.89583682	    -11.06076895	     -1.01936811	      0.65920468	      0.18529219	    -17.01795819	      5.30972181	      7.49931493	     -6.74249783	     22.23164141	     -2.78478036	      0.00000000	     21.61525428	     -4.76796337	     -0.32068811	      0.74586711	      1.90666157	     -6.81822530	      0.00000000	    -10.30045079	     -4.10688219	      6.37720186
      7.83000000	      0.12864697	     -1.35979149	    -11.34165681	     -1.00805301	      0.65840110	      0.18501567	    -17.60763443	      4.44087960	      7.53165944	     -7.63265152	     21.91604811	     -2.83223417	      0.00000000	     21.94428719	     -3.99085089	     -0.44379297	     -1.78558468	      2.73003100	     -7.57178993	      0.00000000	    -10.02086800	     -4.69556887	      6.18912005
      7.84000000	      0.30692036	     -0.78021809	    -11.55811090	     -0.99632921	      0.65770143	      0.18465125	    -18.18072027	      3.53713562	      7.36458115	     -8.63984893	     21.39049747	     -2.91876271	      0.00000000	     22.12917823	     -3.10713799	     -0.55505044	     -4.31982813	      3.25761685	     -8.26605385	      0.00000000	     -9.68948780	     -5.34375233	      5.99574870
      7.85000000	      0.52393916	     -0.12109813	    -11.72809899	     -0.98422265	      0.65718023	      0.18418660	    -18.69894013	      2.55366789	      6.97840753	     -9.81265026	     20.59673845	     -2.99222543	      0.00000000	     22.06047888	     -2.08331449	     -0.49284537	     -6.47797923	      3.37013381	     -8.87928751	      0.00000000	     -9.30827974	     -6.08151354	      5.80434460
      7.86000000	      1.00065754	      0.66006424	    -11.84373392	     -0.97178715	      0.65710856	      0.18358063	    -19.36446754	      1.38990079	      6.25351016	    -11.16481665	     19.61716212	     -2.85344445	      0.00000000	     21.36781550	     -0.78139744	      0.36845687	     -7.84687466	      2.48780396	    -10.43512517	      0.00000000	     -9.15922104	     -7.01764940	      5.55293698
      7.87000000	      1.37575798	      1.57444598	    -11.91821380	     -0.95917045	      0.65727766	      0.18284644	    -19.69458826	      0.11469017	      5.33465857	    -12.86683916	     18.22548622	     -2.64180378	      0.00000000	     20.58463660	      0.69233530	      1.66301450	     -8.65950006	      1.22662790	    -11.88727064	      0.00000000	     -8.82469986	     -8.06113535	      5.29024878
      7.88000000	      1.79848671	      2.54719834	    -11.93229786	     -0.94652440	      0.65784018	      0.18204639	    -19.85607228	     -1.21167551	      4.32137044	    -14.88003802	     16.36373402	     -2.53902403	      0.00000000	     19.70154040	      2.26795203	      3.17536596	     -9.25596959	     -0.11176161	    -13.06021948	      0.00000000	     -8.54001328	     -9.19601167	      5.00975747
      7.89000000	      2.29694917	      3.49122457	    -11.87601248	     -0.93397303	      0.65882128	      0.18122699	    -19.86574814	     -2.48209991	      3.42074290	    -17.23095527	     13.90313776	     -2.65763771	      0.00000000	     18.74646116	      3.84991967	      4.82653769	     -9.87751225	     -1.10060648	    -13.68381144	      0.00000000	     -8.38086479	    -10.33282132	      4.70992933
      7.90000000	      2.66176054	      4.36627391	    -11.76939206	     -0.92170727	      0.65995965	      0.18040411	    -19.35815126	     -3.63406705	      2.57178575	    -20.14895547	     11.01886648	     -2.81083564	      0.00000000	     18.10385778	      5.32252135	      6.05562688	    -10.89552298	     -1.34712929	    -13.55429144	      0.00000000	     -8.14536739	    -11.38355435	      4.45840787
      7.91000000	      3.14345214	      4.94625671	    -11.65391867	     -0.90986312	      0.66142824	      0.17964346	    -18.72138189	     -4.41377605	      2.35138771	    -23.38328404	      6.96327492	     -4.02621150	      0.00000000	     17.25945415	      6.55038822	      7.55403220	    -11.95034212	     -1.53050833	    -14.26021703	      0.00000000	     -8.21897688	    -12.13806692	      4.40097065
